<svg viewBox="0 0 118 118"
     fill="none"
     xmlns="http://www.w3.org/2000/svg"
     class="w-8">
    <path fill-rule="evenodd"
          clip-rule="evenodd"
          d="M59.0047 0C91.0398 0 117.009 25.9674 117.009 58C117.009 90.0324 91.0398 116 59.0047 116C26.9696 116 1 90.0324 1 58C1 25.9674 26.9696 0 59.0047 0Z"
          fill="#6039ff" />
    <path fill-rule="evenodd"
          clip-rule="evenodd"
          d="M59.0067 29.5309C74.7333 29.5309 87.4823 42.28 87.4823 58.0067C87.4823 73.7333 74.7333 86.4823 59.0067 86.4823C43.28 86.4823 30.5309 73.7333 30.5309 58.0067C30.5309 42.28 43.28 29.5309 59.0067 29.5309Z"
          fill="white"
          fill-opacity="0.2" />
    <path fill-rule="evenodd"
          clip-rule="evenodd"
          d="M57.4768 16.2863C58.0469 15.729 58.7331 15.3123 59.502 15.3123C60.271 15.3123 60.9572 15.729 61.5272 16.2863C62.1087 16.8548 62.671 17.6659 63.2081 18.6875C64.3588 20.8763 65.3925 24.0421 66.2589 27.9387C67.2203 32.2619 67.9597 37.3981 68.4387 43.02C73.5487 40.6242 78.368 38.6964 82.5942 37.367C86.4041 36.1686 89.6643 35.4802 92.1365 35.3817C93.2903 35.3357 94.2743 35.4168 95.0576 35.6358C95.8253 35.8503 96.5298 36.2358 96.9144 36.9017C97.2991 37.5675 97.2809 38.37 97.0829 39.1418C96.8809 39.9292 96.4592 40.8213 95.8426 41.7968C94.5211 43.8873 92.2945 46.3649 89.351 49.0632C86.0857 52.0566 82.0051 55.2642 77.3734 58.4895C82.0051 61.7148 86.0857 64.9224 89.3511 67.9158C92.2945 70.6141 94.5211 73.0917 95.8426 75.1822C96.4592 76.1577 96.881 77.0498 97.0829 77.8372C97.2809 78.6089 97.2991 79.4115 96.9144 80.0772C96.5298 80.7431 95.8253 81.1286 95.0576 81.3432C94.2743 81.5621 93.2903 81.6432 92.1365 81.5972C89.6643 81.4988 86.4041 80.8104 82.5942 79.6119C78.3679 78.2825 73.5483 76.3547 68.4381 73.9588C67.9591 79.578 67.2199 84.7117 66.2589 89.0331C65.3925 92.9296 64.3588 96.0954 63.2081 98.2842C62.671 99.3058 62.1087 100.117 61.5272 100.685C60.9572 101.243 60.271 101.659 59.502 101.659C58.7331 101.659 58.0468 101.243 57.4768 100.685C56.8954 100.117 56.3331 99.3058 55.796 98.2842C54.6452 96.0954 53.6116 92.9296 52.7452 89.0331C51.7841 84.7114 51.045 79.5773 50.566 73.9577C45.4549 76.3541 40.6346 78.2823 36.4077 79.6119C32.5978 80.8104 29.3375 81.4988 26.8654 81.5972C25.7116 81.6432 24.7276 81.5621 23.9442 81.3432C23.1765 81.1286 22.4721 80.7431 22.0875 80.0773C21.7027 79.4115 21.721 78.6089 21.919 77.8372C22.121 77.0498 22.5427 76.1577 23.1594 75.1822C24.4808 73.0917 26.7074 70.6141 29.6509 67.9158C32.9162 64.9224 36.9968 61.7148 41.6285 58.4895C36.9968 55.2642 32.9162 52.0566 29.6509 49.0632C26.7074 46.3649 24.4808 43.8873 23.1594 41.7969C22.5427 40.8213 22.121 39.9293 21.919 39.1419C21.721 38.3701 21.7028 37.5675 22.0874 36.9016C22.4721 36.2358 23.1765 35.8503 23.9443 35.6358C24.7276 35.4168 25.7115 35.3357 26.8654 35.3817C29.3375 35.4802 32.5977 36.1686 36.4077 37.367C40.6344 38.6966 45.4545 40.6247 50.5654 43.021C51.0444 37.3987 51.7838 32.2622 52.7452 27.9387C53.6116 24.0421 54.6452 20.8763 55.796 18.6875C56.3331 17.6659 56.8954 16.8548 57.4768 16.2863ZM50.4092 44.9977C45.1272 42.4928 40.1611 40.4918 35.8512 39.136C32.1077 37.9585 29.0266 37.3238 26.7915 37.2347C25.7466 37.1931 24.9735 37.2737 24.4434 37.4218C23.8977 37.5743 23.7325 37.7613 23.6932 37.8293C23.6541 37.897 23.5747 38.133 23.7153 38.681C23.8519 39.2135 24.1685 39.9225 24.7269 40.8059C25.9214 42.6957 28.0118 45.0449 30.904 47.6962C34.2338 50.7487 38.4511 54.0467 43.2631 57.366C45.4133 55.9072 47.6698 54.4495 50.0083 53.0111C50.0855 50.2686 50.2203 47.5874 50.4092 44.9977ZM51.8997 51.8626C51.9703 49.8193 52.0733 47.8154 52.2071 45.8638C53.9651 46.7238 55.7532 47.6366 57.5591 48.597C56.6134 49.122 55.6651 49.6586 54.7158 50.2063C53.7666 50.754 52.8274 51.3065 51.8997 51.8626ZM49.9588 55.2233C48.2232 56.3063 46.5378 57.3977 44.9132 58.4895C46.5379 59.5813 48.2232 60.6727 49.9589 61.7557C49.9408 60.6733 49.9317 59.5827 49.9317 58.4859C49.9317 57.3915 49.9408 56.3033 49.9588 55.2233ZM51.8366 62.9121C51.8032 61.4525 51.7862 59.9755 51.7862 58.4859C51.7862 56.9987 51.8031 55.5242 51.8364 54.0669C53.0833 53.309 54.3532 52.5566 55.6427 51.8126C56.9327 51.0683 58.2202 50.3449 59.501 49.6444C60.7817 50.3449 62.0693 51.0683 63.3593 51.8126C64.6495 52.5571 65.9202 53.3099 67.1678 54.0683C67.2011 55.5251 67.218 56.9992 67.218 58.4859C67.218 59.975 67.201 61.4515 67.1676 62.9108C65.9201 63.6691 64.6495 64.4219 63.3593 65.1663C62.0693 65.9107 60.7817 66.634 59.501 67.3345C58.2202 66.634 56.9327 65.9107 55.6427 65.1663C54.3533 64.4223 53.0834 63.67 51.8366 62.9121ZM50.0085 63.968C47.6699 62.5295 45.4133 61.0717 43.2631 59.6129C38.4511 62.9323 34.2338 66.2303 30.904 69.2828C28.0118 71.9341 25.9215 74.2833 24.7269 76.1731C24.1685 77.0565 23.8519 77.7656 23.7153 78.298C23.5747 78.846 23.6541 79.0819 23.6932 79.1496C23.7325 79.2176 23.8978 79.4046 24.4434 79.5571C24.9735 79.7053 25.7466 79.7859 26.7915 79.7442C29.0266 79.6553 32.1077 79.0205 35.8512 77.8429C40.1612 76.4872 45.1275 74.4861 50.4097 71.9811C50.2207 69.3915 50.0858 66.7104 50.0085 63.968ZM52.2076 71.115C52.0738 69.1635 51.9706 67.1596 51.8999 65.1165C52.8276 65.6725 53.7667 66.2249 54.7158 66.7726C55.6651 67.3203 56.6134 67.857 57.5591 68.3819C55.7534 69.3423 53.9655 70.255 52.2076 71.115ZM52.3561 73.105C52.8265 78.9271 53.5755 84.2239 54.5554 88.6305C55.4067 92.459 56.3972 95.4427 57.4374 97.4212C57.9238 98.3463 58.38 98.975 58.7733 99.3595C59.178 99.7552 59.4227 99.805 59.502 99.805C59.5813 99.805 59.826 99.7552 60.2308 99.3595C60.624 98.975 61.0803 98.3463 61.5666 97.4212C62.6069 95.4427 63.5973 92.459 64.4486 88.6305C65.4286 84.2242 66.1776 78.9277 66.648 73.1061C64.3086 71.9744 61.9169 70.7501 59.501 69.4452C57.0857 70.7497 54.6948 71.9736 52.3561 73.105ZM61.4428 68.3819C63.2493 69.3427 65.0379 70.2558 66.7966 71.1161C66.9304 69.1638 67.0336 67.1591 67.1043 65.1151C66.1759 65.6716 65.236 66.2245 64.2861 66.7726C63.3369 67.3203 62.3886 67.857 61.4428 68.3819ZM68.9958 63.9666C68.9184 66.7098 68.7835 69.3917 68.5944 71.9821C73.8757 74.4867 78.8413 76.4873 83.1506 77.8429C86.8941 79.0205 89.9752 79.6552 92.2103 79.7442C93.2552 79.7859 94.0283 79.7053 94.5584 79.5571C95.1041 79.4046 95.2693 79.2177 95.3086 79.1496C95.3477 79.0819 95.4272 78.846 95.2866 78.298C95.15 77.7655 94.8335 77.0565 94.275 76.1731C93.0804 74.2833 90.99 71.9341 88.0979 69.2828C84.7681 66.2303 80.5508 62.9323 75.7388 59.6129C73.5893 61.0713 71.3335 62.5285 68.9958 63.9666ZM75.7388 57.366C80.5508 54.0466 84.768 50.7487 88.0978 47.6962C90.99 45.0449 93.0804 42.6957 94.275 40.806C94.8334 39.9226 95.15 39.2135 95.2866 38.681C95.4271 38.133 95.3478 37.8971 95.3086 37.8293C95.2693 37.7613 95.1041 37.5743 94.5584 37.4218C94.0283 37.2737 93.2552 37.1931 92.2102 37.2347C89.9752 37.3238 86.8941 37.9585 83.1506 39.136C78.8414 40.4916 73.8761 42.4922 68.5949 44.9966C68.7839 47.5871 68.9187 50.2691 68.996 53.0125C71.3336 54.4505 73.5894 55.9077 75.7388 57.366ZM69.0455 55.2247C70.7802 56.3072 72.4648 57.3981 74.0887 58.4895C72.4648 59.5808 70.7802 60.6717 69.0453 61.7543C69.0634 60.6723 69.0725 59.5823 69.0725 58.4859C69.0725 57.3919 69.0634 56.3043 69.0455 55.2247ZM67.1046 51.8639C67.0339 49.8198 66.9308 47.8151 66.797 45.8627C65.0383 46.7231 63.2495 47.6362 61.4428 48.597C62.3886 49.122 63.3369 49.6586 64.2861 50.2063C65.2361 50.7545 66.1761 51.3074 67.1046 51.8639ZM59.501 47.5338C57.0855 46.2292 54.6944 45.0052 52.3555 43.8737C52.8259 38.0489 53.5751 32.7496 54.5554 28.3412C55.4067 24.5127 56.3972 21.5291 57.4374 19.5505C57.9238 18.6254 58.38 17.9968 58.7733 17.6123C59.178 17.2166 59.4227 17.1668 59.502 17.1668C59.5813 17.1668 59.826 17.2166 60.2308 17.6123C60.624 17.9968 61.0803 18.6254 61.5666 19.5505C62.6069 21.5291 63.5973 24.5127 64.4486 28.3412C65.4289 32.7494 66.1781 38.0483 66.6486 43.8726C64.309 45.0044 61.9171 46.2288 59.501 47.5338Z"
          fill="white" />
    <path fill-rule="evenodd"
          clip-rule="evenodd"
          d="M30.3783 46.0983C32.0566 46.0983 33.4172 47.3838 33.4172 48.9697C33.4172 50.5555 32.0566 51.8411 30.3783 51.8411C28.6999 51.8411 27.3394 50.5555 27.3394 48.9697C27.3394 47.3838 28.6999 46.0983 30.3783 46.0983Z"
          fill="#F3E7FF" />
    <path fill-rule="evenodd"
          clip-rule="evenodd"
          d="M78.6623 37.2426C80.3415 37.2426 81.7027 38.5282 81.7027 40.114C81.7027 41.6999 80.3415 42.9855 78.6623 42.9855C76.9831 42.9855 75.6219 41.6999 75.6219 40.114C75.6219 38.5282 76.9831 37.2426 78.6623 37.2426Z"
          fill="#F3E7FF" />
    <path fill-rule="evenodd"
          clip-rule="evenodd"
          d="M52.9445 81.3264C54.6237 81.3264 55.9849 82.6114 55.9849 84.1965C55.9849 85.7815 54.6237 87.0665 52.9445 87.0665C51.2653 87.0665 49.9042 85.7815 49.9042 84.1965C49.9042 82.6114 51.2653 81.3264 52.9445 81.3264Z"
          fill="#F3E7FF" />
    <path fill-rule="evenodd"
          clip-rule="evenodd"
          d="M59.7406 52.4994C62.5835 52.4994 64.8881 54.804 64.8881 57.6469C64.8881 60.4897 62.5835 62.7944 59.7406 62.7944C56.8978 62.7944 54.5931 60.4897 54.5931 57.6469C54.5931 54.804 56.8978 52.4994 59.7406 52.4994Z"
          fill="#F3E7FF" />
</svg>