<svg width="21" height="21" viewBox="0 0 21 21" fill="none" xmlns="http://www.w3.org/2000/svg">
<rect width="21" height="21" rx="10.5" fill="#E50571"/>
<path d="M10.5001 4.18494C9.71888 4.18494 9.08539 7.0186 9.08539 10.5141C9.08539 14.0097 9.71888 16.8433 10.5001 16.8433C11.2814 16.8433 11.9149 14.0097 11.9149 10.5141C11.9149 7.0186 11.2814 4.18494 10.5001 4.18494ZM10.5978 16.4861C10.5085 16.6053 10.4191 16.5159 10.4191 16.5159C10.0593 16.099 9.87944 15.3245 9.87944 15.3245C9.25012 13.2992 9.39991 8.95069 9.39991 8.95069C9.69566 5.49841 10.2337 4.68288 10.4168 4.50183C10.4355 4.48335 10.4601 4.47206 10.4863 4.46994C10.5125 4.46782 10.5386 4.47501 10.56 4.49025C10.8257 4.67848 11.0485 5.4657 11.0485 5.4657C11.7064 7.90801 11.6468 10.2014 11.6468 10.2014C11.7064 12.197 11.3171 14.4308 11.3171 14.4308C11.0175 16.1284 10.5978 16.4861 10.5978 16.4861Z" fill="white"/>
<path d="M15.99 7.36473C15.601 6.68683 12.8281 7.54758 9.79463 9.28703C6.76115 11.0265 4.62137 12.9863 5.01006 13.6639C5.39875 14.3415 8.17196 13.481 11.2054 11.7416C14.2389 10.0021 16.3787 8.04234 15.99 7.36473ZM5.36893 13.5709C5.22001 13.5521 5.25365 13.4297 5.25365 13.4297C5.43633 12.9103 6.01765 12.3688 6.01765 12.3688C7.46187 10.815 11.3086 8.78098 11.3086 8.78098C14.4499 7.31945 15.4257 7.38111 15.6732 7.44926C15.6986 7.45636 15.7207 7.47221 15.7355 7.49402C15.7503 7.51583 15.757 7.54219 15.7542 7.56842C15.7245 7.89267 15.1511 8.47747 15.1511 8.47747C13.3613 10.2642 11.3422 11.354 11.3422 11.354C9.64091 12.3991 7.50958 13.1726 7.50958 13.1726C5.88784 13.757 5.36899 13.5709 5.36899 13.5709H5.36893Z" fill="white"/>
<path d="M15.9763 13.6863C16.3683 13.0102 14.2339 11.0415 11.2111 9.28895C8.18828 7.53641 5.4157 6.66501 5.02406 7.34227C4.63242 8.01954 6.76647 9.98712 9.79103 11.7397C12.8156 13.4922 15.5847 14.3637 15.9763 13.6863ZM5.2838 7.60352C5.2259 7.46624 5.34813 7.43317 5.34813 7.43317C5.88927 7.33098 6.64939 7.56386 6.64939 7.56386C8.71732 8.03476 12.4047 10.3445 12.4047 10.3445C15.2438 12.3312 15.6792 13.2062 15.7444 13.4546C15.7511 13.4801 15.7485 13.5071 15.7372 13.5309C15.7258 13.5546 15.7065 13.5736 15.6825 13.5845C15.3864 13.72 14.5935 13.5181 14.5935 13.5181C12.1497 12.8628 10.1953 11.6622 10.1953 11.6622C8.43922 10.7151 6.70278 9.25774 6.70278 9.25774C5.38333 8.1468 5.28421 7.60502 5.28421 7.60502L5.2838 7.60352Z" fill="white"/>
<path d="M10.4853 11.2441C10.8965 11.2441 11.2299 10.9107 11.2299 10.4995C11.2299 10.0882 10.8965 9.75485 10.4853 9.75485C10.074 9.75485 9.74066 10.0882 9.74066 10.4995C9.74066 10.9107 10.074 11.2441 10.4853 11.2441Z" fill="white"/>
<path d="M13.5381 8.08655C13.7767 8.08655 13.97 7.88653 13.97 7.63979C13.97 7.39305 13.7767 7.19302 13.5381 7.19302C13.2996 7.19302 13.1063 7.39305 13.1063 7.63979C13.1063 7.88653 13.2996 8.08655 13.5381 8.08655Z" fill="white"/>
<path d="M6.44952 9.60574C6.68804 9.60574 6.8814 9.40572 6.8814 9.15898C6.8814 8.91224 6.68804 8.71222 6.44952 8.71222C6.211 8.71222 6.01764 8.91224 6.01764 9.15898C6.01764 9.40572 6.211 9.60574 6.44952 9.60574Z" fill="white"/>
<path d="M9.60663 15.0863C9.84515 15.0863 10.0385 14.8863 10.0385 14.6395C10.0385 14.3928 9.84515 14.1927 9.60663 14.1927C9.3681 14.1927 9.17474 14.3928 9.17474 14.6395C9.17474 14.8863 9.3681 15.0863 9.60663 15.0863Z" fill="white"/>
</svg>
